<?xml version="1.0" encoding="utf-8"?>
<!-- Generator: Adobe Illustrator 16.2.1, SVG Export Plug-In . SVG Version: 6.00 Build 0)  -->
<!DOCTYPE svg PUBLIC "-//W3C//DTD SVG 1.1//EN" "http://www.w3.org/Graphics/SVG/1.1/DTD/svg11.dtd">
<svg version="1.1" id="Layer_1" xmlns="http://www.w3.org/2000/svg" xmlns:xlink="http://www.w3.org/1999/xlink" x="0px" y="0px"
	 width="24px" height="24px" viewBox="0 0 24 24" enable-background="new 0 0 24 24" xml:space="preserve">
<g>
	<path fill="#44486D" d="M7.533,19.025l-2.827-0.002v-3.078c0-0.002,0-0.005,0-0.007V12.69v-2.668c0-0.003,0-0.007,0-0.011V4.976
		l2.827-0.001c1.297,0,2.351-1.053,2.351-2.35c0-1.297-1.052-2.35-2.351-2.35H2.354c-0.649,0-1.235,0.262-1.662,0.688
		C0.27,1.389,0.007,1.976,0.006,2.625l0.001,10.12l-0.001,8.629c0.001,0.65,0.264,1.239,0.688,1.661
		c0.426,0.426,1.012,0.688,1.662,0.688h5.177c1.297,0,2.351-1.052,2.351-2.35C9.884,20.078,8.831,19.025,7.533,19.025z"/>
	<path fill="#44486D" d="M23.306,10.339L18.537,5.57c-0.459-0.459-1.06-0.688-1.662-0.688c-0.599,0-1.201,0.23-1.662,0.688
		c-0.917,0.918-0.917,2.406,0,3.324l0.758,0.757h-4.902c-1.298,0-2.351,1.053-2.351,2.35s1.053,2.351,2.351,2.351h4.902
		l-0.758,0.758c-0.917,0.916-0.917,2.405,0,3.322c0.919,0.917,2.408,0.917,3.324,0l4.769-4.769
		C24.224,12.744,24.224,11.257,23.306,10.339z"/>
</g>
</svg>
