<?xml version="1.0" encoding="utf-8"?>
<!-- Generator: Adobe Illustrator 16.2.1, SVG Export Plug-In . SVG Version: 6.00 Build 0)  -->
<!DOCTYPE svg PUBLIC "-//W3C//DTD SVG 1.1//EN" "http://www.w3.org/Graphics/SVG/1.1/DTD/svg11.dtd">
<svg version="1.1" id="Layer_1" xmlns="http://www.w3.org/2000/svg" xmlns:xlink="http://www.w3.org/1999/xlink" x="0px" y="0px"
	 width="24px" height="24px" viewBox="0 0 24 24" enable-background="new 0 0 24 24" xml:space="preserve">
<g>
	<path fill="#44486D" d="M0.746,19.638L19.638,0.746c0.997-0.999,2.617-0.999,3.614,0c1,0.999,1,2.618,0,3.616L4.363,23.254
		c-0.999,0.999-2.617,0.999-3.616,0C-0.253,22.255-0.253,20.635,0.746,19.638z"/>
</g>
<g>
	<path fill="#44486D" d="M4.363,0.746l18.891,18.892c0.999,0.996,0.999,2.617,0,3.613c-0.999,0.999-2.617,0.999-3.616,0L0.746,4.363
		c-0.999-0.999-0.999-2.617,0-3.616C1.745-0.251,3.365-0.253,4.363,0.746z"/>
</g>
</svg>
