<?xml version="1.0" encoding="utf-8"?>
<!-- Generator: Adobe Illustrator 16.2.1, SVG Export Plug-In . SVG Version: 6.00 Build 0)  -->
<!DOCTYPE svg PUBLIC "-//W3C//DTD SVG 1.1//EN" "http://www.w3.org/Graphics/SVG/1.1/DTD/svg11.dtd">
<svg version="1.1" id="Layer_1" xmlns="http://www.w3.org/2000/svg" xmlns:xlink="http://www.w3.org/1999/xlink" x="0px" y="0px"
	 width="24px" height="24px" viewBox="0 0 24 24" enable-background="new 0 0 24 24" xml:space="preserve">
<g>
	<g>
		<path fill="#44486D" d="M11.999,23.271c-0.22,0-0.633-0.02-0.93-0.141c-0.196-0.081-0.344-0.246-0.401-0.448l-0.801-2.804
			c-0.045-0.157-0.165-0.281-0.32-0.333C9.158,19.421,8.771,19.26,8.4,19.069c-0.067-0.034-0.145-0.052-0.222-0.052
			c-0.083,0-0.166,0.022-0.238,0.062l-2.55,1.413c-0.104,0.059-0.219,0.086-0.334,0.086c-0.086,0-0.171-0.017-0.253-0.048
			c-0.278-0.109-0.553-0.296-0.796-0.536c-0.241-0.242-0.421-0.504-0.537-0.786c-0.08-0.193-0.067-0.414,0.035-0.6l1.417-2.55
			c0.08-0.144,0.083-0.314,0.008-0.462c-0.187-0.364-0.347-0.749-0.476-1.146c-0.051-0.155-0.175-0.274-0.332-0.32L1.32,13.33
			c-0.2-0.058-0.364-0.202-0.446-0.392C0.755,12.66,0.695,12.342,0.695,12c0-0.338,0.059-0.651,0.175-0.933
			c0.081-0.195,0.245-0.341,0.447-0.4l2.804-0.801c0.157-0.045,0.281-0.165,0.332-0.319C4.583,9.15,4.744,8.765,4.93,8.401
			c0.074-0.145,0.071-0.318-0.009-0.462L3.507,5.392C3.406,5.21,3.393,4.994,3.469,4.8c0.114-0.282,0.294-0.55,0.537-0.792
			c0.235-0.236,0.505-0.421,0.782-0.536c0.085-0.035,0.176-0.053,0.265-0.053c0.116,0,0.231,0.028,0.336,0.087l2.549,1.417
			c0.072,0.04,0.154,0.062,0.237,0.062c0.078,0,0.157-0.019,0.228-0.054C8.765,4.745,9.15,4.585,9.544,4.455
			c0.157-0.05,0.276-0.174,0.322-0.332l0.801-2.801c0.057-0.203,0.203-0.367,0.395-0.448C11.348,0.753,11.729,0.729,12,0.729
			c0.221,0,0.634,0.019,0.932,0.14c0.194,0.081,0.344,0.246,0.399,0.449l0.803,2.804c0.045,0.156,0.163,0.28,0.319,0.331
			c0.397,0.13,0.782,0.291,1.146,0.478c0.067,0.035,0.147,0.054,0.224,0.054c0.082,0,0.163-0.021,0.236-0.062l2.55-1.416
			c0.104-0.058,0.22-0.087,0.337-0.087c0.087,0,0.176,0.017,0.257,0.049c0.282,0.115,0.55,0.295,0.792,0.536
			c0.239,0.24,0.42,0.504,0.534,0.785c0.08,0.194,0.069,0.414-0.034,0.599l-1.415,2.55C19,8.082,18.998,8.253,19.071,8.401
			c0.192,0.375,0.351,0.761,0.478,1.146c0.051,0.155,0.175,0.274,0.331,0.319l2.8,0.801c0.201,0.057,0.364,0.201,0.442,0.392
			c0.121,0.281,0.184,0.599,0.184,0.941c0,0.333-0.061,0.656-0.174,0.932c-0.08,0.194-0.247,0.345-0.447,0.399l-2.804,0.803
			c-0.157,0.045-0.281,0.163-0.333,0.321c-0.126,0.391-0.286,0.773-0.477,1.142c-0.073,0.148-0.071,0.32,0.009,0.463l1.412,2.55
			c0.104,0.182,0.116,0.396,0.039,0.589c-0.108,0.278-0.295,0.553-0.535,0.797c-0.241,0.24-0.504,0.421-0.789,0.534
			c-0.082,0.035-0.17,0.052-0.259,0.052c-0.114,0-0.23-0.026-0.337-0.086l-2.551-1.413c-0.072-0.041-0.155-0.064-0.239-0.064
			c-0.076,0-0.154,0.021-0.222,0.054c-0.375,0.192-0.761,0.35-1.148,0.478c-0.154,0.051-0.272,0.175-0.317,0.331l-0.802,2.802
			c-0.058,0.201-0.202,0.364-0.394,0.445C12.652,23.247,12.27,23.271,11.999,23.271z M12,7.577c-2.438,0-4.423,1.985-4.423,4.423
			S9.562,16.423,12,16.423s4.423-1.984,4.423-4.423S14.438,7.577,12,7.577z"/>
		<path fill="#44486D" d="M12,1.419c0.264,0,0.527,0.03,0.669,0.088l0.8,2.805c0.108,0.377,0.397,0.677,0.771,0.798
			c0.36,0.116,0.711,0.263,1.044,0.435c0.17,0.086,0.354,0.13,0.539,0.13c0.198,0,0.395-0.05,0.574-0.149l2.549-1.415
			c0.146,0.06,0.348,0.172,0.562,0.384c0.215,0.214,0.327,0.417,0.386,0.559l-1.419,2.551c-0.189,0.344-0.198,0.762-0.02,1.113
			c0.173,0.337,0.318,0.687,0.436,1.044c0.123,0.374,0.421,0.663,0.8,0.77l2.799,0.8c0.062,0.146,0.125,0.368,0.125,0.669
			c0,0.304-0.063,0.527-0.122,0.669l-2.803,0.8c-0.379,0.108-0.678,0.397-0.801,0.771c-0.116,0.36-0.262,0.711-0.435,1.044
			c-0.178,0.351-0.172,0.768,0.021,1.113l1.415,2.548c-0.06,0.147-0.173,0.347-0.385,0.561c-0.213,0.216-0.418,0.328-0.561,0.386
			l-2.552-1.414c-0.177-0.1-0.375-0.149-0.573-0.149c-0.184,0-0.367,0.043-0.535,0.127c-0.34,0.174-0.692,0.319-1.049,0.437
			c-0.373,0.122-0.662,0.421-0.769,0.8l-0.802,2.801c-0.141,0.06-0.402,0.09-0.664,0.09c-0.264,0-0.527-0.03-0.669-0.089
			l-0.801-2.803c-0.108-0.379-0.396-0.677-0.77-0.8c-0.356-0.115-0.708-0.262-1.047-0.436c-0.169-0.084-0.352-0.127-0.536-0.127
			c-0.198,0-0.395,0.05-0.574,0.148l-2.548,1.415c-0.147-0.061-0.349-0.172-0.562-0.386c-0.215-0.214-0.327-0.417-0.386-0.56
			l1.417-2.551c0.191-0.345,0.199-0.762,0.019-1.113c-0.17-0.331-0.316-0.682-0.434-1.042c-0.122-0.373-0.42-0.663-0.798-0.771
			l-2.801-0.8C1.448,12.522,1.385,12.301,1.385,12c0-0.304,0.064-0.527,0.123-0.668l2.803-0.801c0.378-0.108,0.677-0.396,0.798-0.77
			c0.118-0.357,0.263-0.708,0.436-1.046c0.179-0.351,0.172-0.768-0.02-1.112L4.109,5.056C4.168,4.909,4.28,4.707,4.494,4.495
			c0.214-0.214,0.418-0.328,0.56-0.387l2.549,1.417c0.178,0.098,0.375,0.148,0.573,0.148c0.185,0,0.369-0.043,0.539-0.128
			C9.051,5.373,9.402,5.227,9.76,5.109c0.375-0.121,0.663-0.42,0.77-0.798l0.801-2.801C11.477,1.449,11.739,1.419,12,1.419
			 M12,17.113c2.819,0,5.113-2.294,5.113-5.113S14.819,6.886,12,6.886S6.886,9.181,6.886,12S9.181,17.113,12,17.113 M12,0.039
			c-0.486,0-0.893,0.067-1.207,0.2c-0.386,0.162-0.676,0.49-0.791,0.892L9.232,3.83c-0.359,0.122-0.71,0.269-1.051,0.437
			L5.724,2.901c-0.208-0.115-0.438-0.173-0.67-0.173c-0.18,0-0.36,0.036-0.53,0.106C4.159,2.985,3.821,3.216,3.519,3.519
			c-0.309,0.31-0.541,0.654-0.69,1.025C2.674,4.929,2.701,5.363,2.904,5.727l1.364,2.455C4.1,8.52,3.953,8.872,3.83,9.232
			l-2.701,0.771c-0.406,0.116-0.734,0.41-0.896,0.799C0.082,11.167,0.004,11.57,0.004,12c0,0.438,0.08,0.846,0.237,1.212
			c0.164,0.382,0.49,0.67,0.889,0.783l2.699,0.772c0.123,0.361,0.27,0.714,0.438,1.051l-1.366,2.457
			c-0.204,0.369-0.229,0.81-0.068,1.199c0.151,0.364,0.382,0.705,0.685,1.008c0.312,0.312,0.657,0.543,1.027,0.689
			c0.164,0.067,0.338,0.1,0.511,0.1c0.232,0,0.462-0.06,0.67-0.175l2.456-1.362c0.344,0.171,0.696,0.316,1.05,0.438l0.771,2.7
			c0.116,0.406,0.412,0.736,0.802,0.898c0.387,0.157,0.863,0.191,1.194,0.191c0.485,0,0.891-0.067,1.205-0.199
			c0.385-0.162,0.677-0.491,0.792-0.895l0.771-2.699c0.353-0.118,0.705-0.265,1.051-0.437l2.459,1.364
			c0.208,0.115,0.438,0.173,0.67,0.173c0.179,0,0.359-0.035,0.529-0.104c0.367-0.152,0.707-0.384,1.01-0.688
			c0.307-0.308,0.538-0.652,0.688-1.022c0.153-0.385,0.125-0.819-0.077-1.181l-1.363-2.456c0.168-0.338,0.315-0.69,0.438-1.051
			l2.701-0.771c0.404-0.115,0.733-0.409,0.897-0.797c0.15-0.364,0.229-0.768,0.229-1.198c0-0.435-0.08-0.843-0.237-1.211
			c-0.163-0.383-0.489-0.671-0.891-0.785l-2.699-0.771c-0.118-0.354-0.265-0.706-0.437-1.049l1.367-2.458
			c0.204-0.369,0.229-0.812,0.066-1.202c-0.152-0.366-0.382-0.704-0.682-1.005c-0.309-0.307-0.652-0.538-1.021-0.688
			c-0.165-0.067-0.343-0.102-0.519-0.102c-0.232,0-0.463,0.059-0.669,0.174l-2.456,1.366c-0.335-0.167-0.689-0.313-1.051-0.436
			L14,1.131c-0.116-0.405-0.412-0.735-0.802-0.896C12.809,0.072,12.332,0.039,12,0.039L12,0.039z M12,15.733
			c-2.059,0-3.733-1.675-3.733-3.733c0-2.059,1.674-3.733,3.733-3.733c2.059,0,3.732,1.674,3.732,3.733
			C15.732,14.059,14.059,15.733,12,15.733L12,15.733z"/>
	</g>
</g>
</svg>
