<?xml version="1.0" encoding="utf-8"?>
<!-- Generator: Adobe Illustrator 16.2.1, SVG Export Plug-In . SVG Version: 6.00 Build 0)  -->
<!DOCTYPE svg PUBLIC "-//W3C//DTD SVG 1.1//EN" "http://www.w3.org/Graphics/SVG/1.1/DTD/svg11.dtd">
<svg version="1.1" id="Layer_1" xmlns="http://www.w3.org/2000/svg" xmlns:xlink="http://www.w3.org/1999/xlink" x="0px" y="0px"
	 width="24px" height="24px" viewBox="0 0 24 24" enable-background="new 0 0 24 24" xml:space="preserve">
<g>
	<g>
		<path fill="#44486D" d="M21.914,14H3.331c-1.104,0-2-0.896-2-2c0-1.104,0.896-2,2-2h18.583c1.104,0,2,0.896,2,2
			C23.914,13.104,23.02,14,21.914,14z"/>
	</g>
	<g>
		<path fill="#44486D" d="M8.058,20.059c-0.512,0-1.024-0.195-1.414-0.586l-6.058-6.059c-0.781-0.781-0.781-2.047,0-2.828
			l6.058-6.058c0.78-0.781,2.048-0.781,2.828,0c0.781,0.781,0.781,2.047,0,2.828L4.829,12l4.643,4.645
			c0.781,0.78,0.781,2.047,0,2.828C9.082,19.861,8.569,20.059,8.058,20.059z"/>
	</g>
</g>
</svg>
