<?xml version="1.0" encoding="utf-8"?>
<!-- Generator: Adobe Illustrator 16.2.1, SVG Export Plug-In . SVG Version: 6.00 Build 0)  -->
<!DOCTYPE svg PUBLIC "-//W3C//DTD SVG 1.1//EN" "http://www.w3.org/Graphics/SVG/1.1/DTD/svg11.dtd">
<svg version="1.1" id="Layer_1" xmlns="http://www.w3.org/2000/svg" xmlns:xlink="http://www.w3.org/1999/xlink" x="0px" y="0px"
	 width="24px" height="24px" viewBox="0 0 24 24" enable-background="new 0 0 24 24" xml:space="preserve">
<g>
	<g>
		<path fill="#44486D" d="M2.018,9.995h18.63c1.108,0,2.007,0.898,2.007,2.005c0,1.107-0.898,2.006-2.007,2.006H2.018
			c-1.107,0-2.006-0.898-2.006-2.006C0.012,10.893,0.91,9.995,2.018,9.995z"/>
	</g>
	<g>
		<path fill="#44486D" d="M15.908,3.921c0.515,0,1.025,0.196,1.417,0.587l6.075,6.074c0.784,0.784,0.784,2.053,0,2.837l-6.075,6.073
			c-0.78,0.782-2.052,0.782-2.835,0c-0.781-0.783-0.781-2.053,0-2.835L19.146,12L14.49,7.344c-0.781-0.782-0.781-2.051,0-2.835
			C14.883,4.117,15.396,3.921,15.908,3.921z"/>
	</g>
</g>
</svg>
