<?xml version="1.0" encoding="utf-8"?>
<!-- Generator: Adobe Illustrator 16.2.1, SVG Export Plug-In . SVG Version: 6.00 Build 0)  -->
<!DOCTYPE svg PUBLIC "-//W3C//DTD SVG 1.1//EN" "http://www.w3.org/Graphics/SVG/1.1/DTD/svg11.dtd">
<svg version="1.1" id="Layer_1" xmlns="http://www.w3.org/2000/svg" xmlns:xlink="http://www.w3.org/1999/xlink" x="0px" y="0px"
	 width="213px" height="90.316px" viewBox="0 0 213 90.316" enable-background="new 0 0 213 90.316" xml:space="preserve">
<path fill="#44486D" d="M213,38.373v-8c0-2.2-1.8-4-4-4h-16.066c0,0-0.09-21.562-0.09-23.27s-1.8-3.104-4-3.104h-7
	c-2.199,0-4,1.8-4,4v22.333c0,0-36.076-0.038-37.156-0.038c-10.763,0-20.278,5.318-26.082,13.464c0-1.449,0-35.759,0-35.759
	c0-2.2-1.799-4-4-4h-8c-2.2,0-4,1.8-4,4c0,0,0,24.69,0,26.14c-4.527-2.451-9.711-3.845-15.221-3.845
	c-10.519,0-19.852,5.075-25.687,12.909C51.863,31.37,42.53,26.295,32.01,26.295C14.331,26.295,0,40.627,0,58.305
	c0,17.678,14.331,32.01,32.01,32.01c10.519,0,19.852-5.075,25.688-12.909c5.835,7.834,15.168,12.909,25.687,12.909
	c5.51,0,10.694-1.394,15.221-3.844c0,0.809,0,1.497,0,1.922c0,1.057,1.8,1.922,4,1.922h8c2.199,0,4-1.8,4-4c0,0,0-8.015,0-9.464
	c5.803,8.146,15.317,13.464,26.082,13.464c17.679,0,32.01-14.331,32.01-32.01c0-5.803-1.553-11.239-4.252-15.933h9.397
	c0,1.45,0.124,18.508,0.154,18.856c1.369,15.596,15.419,29.005,29.252,29.005c1.74,0,5.75,0.081,5.75-3.919v-7.641
	c0-4.071-3.586-4.071-3.586-4.071c-8.987,0-16.419-7.312-16.419-16.299l-0.031-15.933H209C211.2,42.373,213,40.573,213,38.373z
	 M32.01,74.049c-8.681,0-15.744-7.062-15.744-15.743c0-8.682,7.063-15.744,15.744-15.744c8.681,0,15.744,7.062,15.744,15.744
	C47.754,66.986,40.691,74.049,32.01,74.049z M84.012,74.604c-8.987,0-16.299-7.312-16.299-16.299c0-8.987,7.312-16.3,16.299-16.3
	c8.987,0,16.299,7.312,16.299,16.3S92.999,74.604,84.012,74.604z M140.688,74.604c-8.987,0-16.299-7.312-16.299-16.299
	c0-8.987,7.312-16.3,16.299-16.3c8.986,0,16.299,7.312,16.299,16.3S149.674,74.604,140.688,74.604z"/>
</svg>
